<mxfile host="app.diagrams.net" modified="2021-12-15T04:11:50.490Z" agent="5.0 (Macintosh; Intel Mac OS X 10_15_7) AppleWebKit/537.36 (KHTML, like Gecko) Chrome/96.0.4664.55 Safari/537.36" etag="ww4pgVECH7KzAITnQWL6" version="15.9.6" type="github">
  <diagram name="Page-1" id="74e2e168-ea6b-b213-b513-2b3c1d86103e">
    <mxGraphModel dx="1398" dy="657" grid="1" gridSize="10" guides="1" tooltips="1" connect="1" arrows="1" fold="1" page="1" pageScale="1" pageWidth="1100" pageHeight="850" background="none" math="0" shadow="0">
      <root>
        <mxCell id="0" />
        <mxCell id="1" parent="0" />
        <mxCell id="77e6c97f196da883-1" value="&lt;font face=&quot;Montserrat&quot; data-font-src=&quot;https://fonts.googleapis.com/css?family=Montserrat&quot;&gt;API Cataloging Process&lt;/font&gt;" style="swimlane;html=1;childLayout=stackLayout;startSize=20;rounded=0;shadow=0;labelBackgroundColor=none;strokeWidth=1;fontFamily=Verdana;fontSize=8;align=center;strokeColor=#4FAEEA;" parent="1" vertex="1">
          <mxGeometry x="18" y="39" width="1320" height="991" as="geometry">
            <mxRectangle x="22" y="40" width="150" height="20" as="alternateBounds" />
          </mxGeometry>
        </mxCell>
        <mxCell id="77e6c97f196da883-2" value="API Owner" style="swimlane;html=1;startSize=20;fontFamily=Montserrat;fontSource=https%3A%2F%2Ffonts.googleapis.com%2Fcss%3Ffamily%3DMontserrat;fillColor=#083488;fontColor=#FFFFFF;strokeColor=#B3B3B3;" parent="77e6c97f196da883-1" vertex="1">
          <mxGeometry y="20" width="160" height="971" as="geometry" />
        </mxCell>
        <mxCell id="sp9IfoOxn37nYkFX-SEC-47" value="Access Create API Screen" style="rounded=1;whiteSpace=wrap;html=1;shadow=0;labelBackgroundColor=none;strokeWidth=1;fontFamily=Montserrat;fontSize=8;align=center;fontSource=https%3A%2F%2Ffonts.googleapis.com%2Fcss%3Ffamily%3DMontserrat;strokeColor=#4FAEEA;" vertex="1" parent="77e6c97f196da883-2">
          <mxGeometry x="18" y="30" width="100" height="30" as="geometry" />
        </mxCell>
        <mxCell id="sp9IfoOxn37nYkFX-SEC-50" value="Enter API Metadata - API name, Hierarchy, Owners&amp;nbsp;" style="rounded=1;whiteSpace=wrap;html=1;shadow=0;labelBackgroundColor=none;strokeWidth=1;fontFamily=Montserrat;fontSize=8;align=center;fontSource=https%3A%2F%2Ffonts.googleapis.com%2Fcss%3Ffamily%3DMontserrat;strokeColor=#4FAEEA;" vertex="1" parent="77e6c97f196da883-2">
          <mxGeometry x="18" y="98" width="100" height="40" as="geometry" />
        </mxCell>
        <mxCell id="sp9IfoOxn37nYkFX-SEC-56" value="Enter API Definition" style="rounded=1;whiteSpace=wrap;html=1;shadow=0;labelBackgroundColor=none;strokeWidth=1;fontFamily=Montserrat;fontSize=8;align=center;fontSource=https%3A%2F%2Ffonts.googleapis.com%2Fcss%3Ffamily%3DMontserrat;strokeColor=#4FAEEA;" vertex="1" parent="77e6c97f196da883-2">
          <mxGeometry x="18" y="176" width="100" height="20" as="geometry" />
        </mxCell>
        <mxCell id="sp9IfoOxn37nYkFX-SEC-81" value="Enter API Documentation" style="rounded=1;whiteSpace=wrap;html=1;shadow=0;labelBackgroundColor=none;strokeWidth=1;fontFamily=Montserrat;fontSize=8;align=center;fontSource=https%3A%2F%2Ffonts.googleapis.com%2Fcss%3Ffamily%3DMontserrat;strokeColor=#4FAEEA;" vertex="1" parent="77e6c97f196da883-2">
          <mxGeometry x="18" y="320" width="100" height="20" as="geometry" />
        </mxCell>
        <mxCell id="sp9IfoOxn37nYkFX-SEC-144" value="Publish the API" style="rounded=1;whiteSpace=wrap;html=1;shadow=0;labelBackgroundColor=none;strokeWidth=1;fontFamily=Montserrat;fontSize=8;align=center;fontSource=https%3A%2F%2Ffonts.googleapis.com%2Fcss%3Ffamily%3DMontserrat;strokeColor=#4FAEEA;" vertex="1" parent="77e6c97f196da883-2">
          <mxGeometry x="30" y="590" width="100" height="20" as="geometry" />
        </mxCell>
        <mxCell id="sp9IfoOxn37nYkFX-SEC-159" value="Notification on Rejection and changes needed" style="rounded=1;whiteSpace=wrap;html=1;shadow=0;labelBackgroundColor=none;strokeWidth=1;fontFamily=Montserrat;fontSize=8;align=center;fontSource=https%3A%2F%2Ffonts.googleapis.com%2Fcss%3Ffamily%3DMontserrat;strokeColor=#4FAEEA;" vertex="1" parent="77e6c97f196da883-2">
          <mxGeometry x="40" y="676" width="100" height="31" as="geometry" />
        </mxCell>
        <mxCell id="sp9IfoOxn37nYkFX-SEC-157" style="edgeStyle=orthogonalEdgeStyle;rounded=0;orthogonalLoop=1;jettySize=auto;html=1;fontFamily=Montserrat;fontSource=https%3A%2F%2Ffonts.googleapis.com%2Fcss%3Ffamily%3DMontserrat;fontSize=8;fontColor=#000000;strokeColor=#6666FF;entryX=0;entryY=0.5;entryDx=0;entryDy=0;exitX=0;exitY=0.5;exitDx=0;exitDy=0;" edge="1" parent="77e6c97f196da883-2" source="sp9IfoOxn37nYkFX-SEC-159" target="sp9IfoOxn37nYkFX-SEC-47">
          <mxGeometry relative="1" as="geometry">
            <mxPoint x="22" y="451" as="targetPoint" />
            <mxPoint x="42" y="691" as="sourcePoint" />
            <Array as="points">
              <mxPoint x="40" y="691" />
              <mxPoint x="12" y="691" />
              <mxPoint x="12" y="45" />
            </Array>
          </mxGeometry>
        </mxCell>
        <mxCell id="sp9IfoOxn37nYkFX-SEC-165" value="Notify API approved for Discovery" style="rounded=1;whiteSpace=wrap;html=1;shadow=0;labelBackgroundColor=none;strokeWidth=1;fontFamily=Montserrat;fontSize=8;align=center;fontSource=https%3A%2F%2Ffonts.googleapis.com%2Fcss%3Ffamily%3DMontserrat;strokeColor=#82b366;fillColor=#d5e8d4;gradientColor=#97d077;" vertex="1" parent="77e6c97f196da883-2">
          <mxGeometry x="40" y="760" width="100" height="31" as="geometry" />
        </mxCell>
        <mxCell id="77e6c97f196da883-3" value="Portal Admin" style="swimlane;html=1;startSize=20;fontFamily=Montserrat;fontSource=https%3A%2F%2Ffonts.googleapis.com%2Fcss%3Ffamily%3DMontserrat;fillColor=#083488;fontColor=#FFFFFF;strokeColor=#B3B3B3;" parent="77e6c97f196da883-1" vertex="1">
          <mxGeometry x="160" y="20" width="200" height="971" as="geometry" />
        </mxCell>
        <mxCell id="sp9IfoOxn37nYkFX-SEC-48" value="Present API creation screen" style="rounded=1;whiteSpace=wrap;html=1;shadow=0;labelBackgroundColor=none;strokeWidth=1;fontFamily=Montserrat;fontSize=8;align=center;fontSource=https%3A%2F%2Ffonts.googleapis.com%2Fcss%3Ffamily%3DMontserrat;strokeColor=#4FAEEA;" vertex="1" parent="77e6c97f196da883-3">
          <mxGeometry x="50" y="30" width="100" height="30" as="geometry" />
        </mxCell>
        <mxCell id="sp9IfoOxn37nYkFX-SEC-45" value="Is Data Ok?" style="rhombus;whiteSpace=wrap;html=1;fontFamily=Montserrat;fontSource=https%3A%2F%2Ffonts.googleapis.com%2Fcss%3Ffamily%3DMontserrat;fontSize=8;strokeColor=#4FAEEA;" vertex="1" parent="77e6c97f196da883-3">
          <mxGeometry x="70" y="103" width="60" height="50" as="geometry" />
        </mxCell>
        <mxCell id="sp9IfoOxn37nYkFX-SEC-55" value="&lt;font color=&quot;#000000&quot; style=&quot;font-size: 8px;&quot;&gt;No&lt;/font&gt;" style="text;html=1;strokeColor=none;fillColor=none;align=center;verticalAlign=middle;whiteSpace=wrap;rounded=0;fontFamily=Montserrat;fontSource=https%3A%2F%2Ffonts.googleapis.com%2Fcss%3Ffamily%3DMontserrat;fontColor=#FFFFFF;fontSize=8;" vertex="1" parent="77e6c97f196da883-3">
          <mxGeometry x="26" y="108" width="60" height="30" as="geometry" />
        </mxCell>
        <mxCell id="sp9IfoOxn37nYkFX-SEC-57" value="&lt;font color=&quot;#000000&quot; style=&quot;font-size: 8px;&quot;&gt;Yes&lt;/font&gt;" style="text;html=1;strokeColor=none;fillColor=none;align=center;verticalAlign=middle;whiteSpace=wrap;rounded=0;fontFamily=Montserrat;fontSource=https%3A%2F%2Ffonts.googleapis.com%2Fcss%3Ffamily%3DMontserrat;fontColor=#FFFFFF;fontSize=8;" vertex="1" parent="77e6c97f196da883-3">
          <mxGeometry x="25" y="136" width="60" height="30" as="geometry" />
        </mxCell>
        <mxCell id="sp9IfoOxn37nYkFX-SEC-58" value="Is Data Ok?" style="rhombus;whiteSpace=wrap;html=1;fontFamily=Montserrat;fontSource=https%3A%2F%2Ffonts.googleapis.com%2Fcss%3Ffamily%3DMontserrat;fontSize=8;strokeColor=#4FAEEA;" vertex="1" parent="77e6c97f196da883-3">
          <mxGeometry x="68" y="190" width="60" height="40" as="geometry" />
        </mxCell>
        <mxCell id="sp9IfoOxn37nYkFX-SEC-61" value="&lt;font color=&quot;#000000&quot; style=&quot;font-size: 8px;&quot;&gt;No&lt;/font&gt;" style="text;html=1;strokeColor=none;fillColor=none;align=center;verticalAlign=middle;whiteSpace=wrap;rounded=0;fontFamily=Montserrat;fontSource=https%3A%2F%2Ffonts.googleapis.com%2Fcss%3Ffamily%3DMontserrat;fontColor=#FFFFFF;fontSize=8;" vertex="1" parent="77e6c97f196da883-3">
          <mxGeometry x="18" y="190" width="60" height="30" as="geometry" />
        </mxCell>
        <mxCell id="sp9IfoOxn37nYkFX-SEC-73" style="edgeStyle=orthogonalEdgeStyle;rounded=0;orthogonalLoop=1;jettySize=auto;html=1;entryX=0;entryY=0.5;entryDx=0;entryDy=0;fontFamily=Montserrat;fontSource=https%3A%2F%2Ffonts.googleapis.com%2Fcss%3Ffamily%3DMontserrat;fontSize=8;fontColor=#000000;strokeColor=#6666FF;" edge="1" parent="77e6c97f196da883-3" source="sp9IfoOxn37nYkFX-SEC-62" target="sp9IfoOxn37nYkFX-SEC-70">
          <mxGeometry relative="1" as="geometry" />
        </mxCell>
        <mxCell id="sp9IfoOxn37nYkFX-SEC-88" style="edgeStyle=orthogonalEdgeStyle;rounded=0;orthogonalLoop=1;jettySize=auto;html=1;exitX=0.5;exitY=1;exitDx=0;exitDy=0;entryX=0.5;entryY=0;entryDx=0;entryDy=0;fontFamily=Montserrat;fontSource=https%3A%2F%2Ffonts.googleapis.com%2Fcss%3Ffamily%3DMontserrat;fontSize=8;fontColor=#000000;strokeColor=#6666FF;" edge="1" parent="77e6c97f196da883-3" source="sp9IfoOxn37nYkFX-SEC-62">
          <mxGeometry relative="1" as="geometry">
            <mxPoint x="38" y="315" as="targetPoint" />
          </mxGeometry>
        </mxCell>
        <mxCell id="sp9IfoOxn37nYkFX-SEC-62" value="Is a URL?" style="rhombus;whiteSpace=wrap;html=1;fontFamily=Montserrat;fontSource=https%3A%2F%2Ffonts.googleapis.com%2Fcss%3Ffamily%3DMontserrat;fontSize=8;strokeColor=#4FAEEA;" vertex="1" parent="77e6c97f196da883-3">
          <mxGeometry x="8" y="240" width="60" height="50" as="geometry" />
        </mxCell>
        <mxCell id="sp9IfoOxn37nYkFX-SEC-70" value="Create definition file" style="rounded=1;whiteSpace=wrap;html=1;shadow=0;labelBackgroundColor=none;strokeWidth=1;fontFamily=Montserrat;fontSize=8;align=center;fontSource=https%3A%2F%2Ffonts.googleapis.com%2Fcss%3Ffamily%3DMontserrat;strokeColor=#4FAEEA;" vertex="1" parent="77e6c97f196da883-3">
          <mxGeometry x="94" y="255" width="100" height="20" as="geometry" />
        </mxCell>
        <mxCell id="sp9IfoOxn37nYkFX-SEC-74" style="edgeStyle=orthogonalEdgeStyle;rounded=1;html=1;labelBackgroundColor=none;startArrow=none;startFill=0;startSize=5;endArrow=classicThin;endFill=1;endSize=5;jettySize=auto;orthogonalLoop=1;strokeWidth=1;fontFamily=Verdana;fontSize=8;exitX=0.5;exitY=1;exitDx=0;exitDy=0;entryX=0.5;entryY=0;entryDx=0;entryDy=0;strokeColor=#6666FF;" edge="1" parent="77e6c97f196da883-3" source="sp9IfoOxn37nYkFX-SEC-58" target="sp9IfoOxn37nYkFX-SEC-62">
          <mxGeometry relative="1" as="geometry">
            <mxPoint x="-42" y="250" as="sourcePoint" />
            <mxPoint x="-252" y="280" as="targetPoint" />
            <Array as="points">
              <mxPoint x="98" y="230" />
              <mxPoint x="38" y="230" />
            </Array>
          </mxGeometry>
        </mxCell>
        <mxCell id="sp9IfoOxn37nYkFX-SEC-76" value="&lt;font color=&quot;#000000&quot; style=&quot;font-size: 8px;&quot;&gt;No&lt;/font&gt;" style="text;html=1;strokeColor=none;fillColor=none;align=center;verticalAlign=middle;whiteSpace=wrap;rounded=0;fontFamily=Montserrat;fontSource=https%3A%2F%2Ffonts.googleapis.com%2Fcss%3Ffamily%3DMontserrat;fontColor=#FFFFFF;fontSize=8;" vertex="1" parent="77e6c97f196da883-3">
          <mxGeometry x="50" y="240" width="60" height="30" as="geometry" />
        </mxCell>
        <mxCell id="sp9IfoOxn37nYkFX-SEC-92" value="&lt;font color=&quot;#000000&quot; style=&quot;font-size: 8px;&quot;&gt;No&lt;/font&gt;" style="text;html=1;strokeColor=none;fillColor=none;align=center;verticalAlign=middle;whiteSpace=wrap;rounded=0;fontFamily=Montserrat;fontSource=https%3A%2F%2Ffonts.googleapis.com%2Fcss%3Ffamily%3DMontserrat;fontColor=#FFFFFF;fontSize=8;" vertex="1" parent="77e6c97f196da883-3">
          <mxGeometry x="12" y="285" width="60" height="30" as="geometry" />
        </mxCell>
        <mxCell id="sp9IfoOxn37nYkFX-SEC-100" value="&lt;font color=&quot;#000000&quot; style=&quot;font-size: 8px;&quot;&gt;Yes&lt;/font&gt;" style="text;html=1;strokeColor=none;fillColor=none;align=center;verticalAlign=middle;whiteSpace=wrap;rounded=0;fontFamily=Montserrat;fontSource=https%3A%2F%2Ffonts.googleapis.com%2Fcss%3Ffamily%3DMontserrat;fontColor=#FFFFFF;fontSize=8;" vertex="1" parent="77e6c97f196da883-3">
          <mxGeometry x="52" y="313" width="60" height="30" as="geometry" />
        </mxCell>
        <mxCell id="sp9IfoOxn37nYkFX-SEC-108" style="edgeStyle=orthogonalEdgeStyle;rounded=0;orthogonalLoop=1;jettySize=auto;html=1;exitX=0.5;exitY=1;exitDx=0;exitDy=0;fontFamily=Montserrat;fontSource=https%3A%2F%2Ffonts.googleapis.com%2Fcss%3Ffamily%3DMontserrat;fontSize=8;fontColor=#000000;strokeColor=#6666FF;" edge="1" parent="77e6c97f196da883-3">
          <mxGeometry relative="1" as="geometry">
            <mxPoint x="38" y="433" as="sourcePoint" />
            <mxPoint x="38" y="453" as="targetPoint" />
          </mxGeometry>
        </mxCell>
        <mxCell id="sp9IfoOxn37nYkFX-SEC-103" value="Is SAAS?" style="rhombus;whiteSpace=wrap;html=1;fontFamily=Montserrat;fontSource=https%3A%2F%2Ffonts.googleapis.com%2Fcss%3Ffamily%3DMontserrat;fontSize=8;strokeColor=#4FAEEA;" vertex="1" parent="77e6c97f196da883-3">
          <mxGeometry x="8" y="383" width="60" height="50" as="geometry" />
        </mxCell>
        <mxCell id="sp9IfoOxn37nYkFX-SEC-104" value="Is Packaged?" style="rhombus;whiteSpace=wrap;html=1;fontFamily=Montserrat;fontSource=https%3A%2F%2Ffonts.googleapis.com%2Fcss%3Ffamily%3DMontserrat;fontSize=8;strokeColor=#4FAEEA;" vertex="1" parent="77e6c97f196da883-3">
          <mxGeometry x="8" y="454" width="60" height="50" as="geometry" />
        </mxCell>
        <mxCell id="sp9IfoOxn37nYkFX-SEC-129" value="&lt;font color=&quot;#000000&quot; style=&quot;font-size: 8px;&quot;&gt;Yes&lt;/font&gt;" style="text;html=1;strokeColor=none;fillColor=none;align=center;verticalAlign=middle;whiteSpace=wrap;rounded=0;fontFamily=Montserrat;fontSource=https%3A%2F%2Ffonts.googleapis.com%2Fcss%3Ffamily%3DMontserrat;fontColor=#FFFFFF;fontSize=8;" vertex="1" parent="77e6c97f196da883-3">
          <mxGeometry x="52" y="383" width="60" height="30" as="geometry" />
        </mxCell>
        <mxCell id="sp9IfoOxn37nYkFX-SEC-131" value="&lt;font color=&quot;#000000&quot; style=&quot;font-size: 8px;&quot;&gt;Yes&lt;/font&gt;" style="text;html=1;strokeColor=none;fillColor=none;align=center;verticalAlign=middle;whiteSpace=wrap;rounded=0;fontFamily=Montserrat;fontSource=https%3A%2F%2Ffonts.googleapis.com%2Fcss%3Ffamily%3DMontserrat;fontColor=#FFFFFF;fontSize=8;" vertex="1" parent="77e6c97f196da883-3">
          <mxGeometry x="52" y="453" width="60" height="30" as="geometry" />
        </mxCell>
        <mxCell id="sp9IfoOxn37nYkFX-SEC-133" value="&lt;font color=&quot;#000000&quot; style=&quot;font-size: 8px;&quot;&gt;No&lt;/font&gt;" style="text;html=1;strokeColor=none;fillColor=none;align=center;verticalAlign=middle;whiteSpace=wrap;rounded=0;fontFamily=Montserrat;fontSource=https%3A%2F%2Ffonts.googleapis.com%2Fcss%3Ffamily%3DMontserrat;fontColor=#FFFFFF;fontSize=8;" vertex="1" parent="77e6c97f196da883-3">
          <mxGeometry x="-42" y="481" width="60" height="30" as="geometry" />
        </mxCell>
        <mxCell id="sp9IfoOxn37nYkFX-SEC-134" value="Is Data Ok?" style="rhombus;whiteSpace=wrap;html=1;fontFamily=Montserrat;fontSource=https%3A%2F%2Ffonts.googleapis.com%2Fcss%3Ffamily%3DMontserrat;fontSize=8;strokeColor=#4FAEEA;" vertex="1" parent="77e6c97f196da883-3">
          <mxGeometry x="68" y="527" width="60" height="40" as="geometry" />
        </mxCell>
        <mxCell id="sp9IfoOxn37nYkFX-SEC-150" style="edgeStyle=orthogonalEdgeStyle;rounded=0;orthogonalLoop=1;jettySize=auto;html=1;exitX=0.5;exitY=1;exitDx=0;exitDy=0;entryX=0.5;entryY=0;entryDx=0;entryDy=0;fontFamily=Montserrat;fontSource=https%3A%2F%2Ffonts.googleapis.com%2Fcss%3Ffamily%3DMontserrat;fontSize=8;fontColor=#000000;strokeColor=#6666FF;" edge="1" parent="77e6c97f196da883-3" source="sp9IfoOxn37nYkFX-SEC-147" target="sp9IfoOxn37nYkFX-SEC-149">
          <mxGeometry relative="1" as="geometry" />
        </mxCell>
        <mxCell id="sp9IfoOxn37nYkFX-SEC-147" value="Save the API to Database" style="rounded=1;whiteSpace=wrap;html=1;shadow=0;labelBackgroundColor=none;strokeWidth=1;fontFamily=Montserrat;fontSize=8;align=center;fontSource=https%3A%2F%2Ffonts.googleapis.com%2Fcss%3Ffamily%3DMontserrat;strokeColor=#4FAEEA;" vertex="1" parent="77e6c97f196da883-3">
          <mxGeometry x="32" y="590" width="100" height="20" as="geometry" />
        </mxCell>
        <mxCell id="sp9IfoOxn37nYkFX-SEC-149" value="Inform the EA" style="rounded=1;whiteSpace=wrap;html=1;shadow=0;labelBackgroundColor=none;strokeWidth=1;fontFamily=Montserrat;fontSize=8;align=center;fontSource=https%3A%2F%2Ffonts.googleapis.com%2Fcss%3Ffamily%3DMontserrat;strokeColor=#4FAEEA;" vertex="1" parent="77e6c97f196da883-3">
          <mxGeometry x="32" y="630" width="100" height="20" as="geometry" />
        </mxCell>
        <mxCell id="sp9IfoOxn37nYkFX-SEC-162" style="edgeStyle=orthogonalEdgeStyle;rounded=0;orthogonalLoop=1;jettySize=auto;html=1;entryX=0.5;entryY=0;entryDx=0;entryDy=0;fontFamily=Montserrat;fontSource=https%3A%2F%2Ffonts.googleapis.com%2Fcss%3Ffamily%3DMontserrat;fontSize=8;fontColor=#000000;strokeColor=#6666FF;" edge="1" parent="77e6c97f196da883-3" source="sp9IfoOxn37nYkFX-SEC-155" target="sp9IfoOxn37nYkFX-SEC-161">
          <mxGeometry relative="1" as="geometry" />
        </mxCell>
        <mxCell id="sp9IfoOxn37nYkFX-SEC-155" value="Is API Approved" style="rhombus;whiteSpace=wrap;html=1;fontFamily=Montserrat;fontSource=https%3A%2F%2Ffonts.googleapis.com%2Fcss%3Ffamily%3DMontserrat;fontSize=8;strokeColor=#4FAEEA;" vertex="1" parent="77e6c97f196da883-3">
          <mxGeometry x="50" y="671" width="60" height="40" as="geometry" />
        </mxCell>
        <mxCell id="sp9IfoOxn37nYkFX-SEC-158" value="&lt;font color=&quot;#000000&quot; style=&quot;font-size: 8px;&quot;&gt;No&lt;/font&gt;" style="text;html=1;strokeColor=none;fillColor=none;align=center;verticalAlign=middle;whiteSpace=wrap;rounded=0;fontFamily=Montserrat;fontSource=https%3A%2F%2Ffonts.googleapis.com%2Fcss%3Ffamily%3DMontserrat;fontColor=#FFFFFF;fontSize=8;" vertex="1" parent="77e6c97f196da883-3">
          <mxGeometry y="669" width="60" height="30" as="geometry" />
        </mxCell>
        <mxCell id="sp9IfoOxn37nYkFX-SEC-174" style="edgeStyle=orthogonalEdgeStyle;rounded=0;orthogonalLoop=1;jettySize=auto;html=1;exitX=0.5;exitY=1;exitDx=0;exitDy=0;fontFamily=Montserrat;fontSource=https%3A%2F%2Ffonts.googleapis.com%2Fcss%3Ffamily%3DMontserrat;fontSize=8;fontColor=#000000;strokeColor=#6666FF;" edge="1" parent="77e6c97f196da883-3" source="sp9IfoOxn37nYkFX-SEC-161" target="sp9IfoOxn37nYkFX-SEC-173">
          <mxGeometry relative="1" as="geometry" />
        </mxCell>
        <mxCell id="sp9IfoOxn37nYkFX-SEC-161" value="Is External API" style="rhombus;whiteSpace=wrap;html=1;fontFamily=Montserrat;fontSource=https%3A%2F%2Ffonts.googleapis.com%2Fcss%3Ffamily%3DMontserrat;fontSize=8;strokeColor=#4FAEEA;" vertex="1" parent="77e6c97f196da883-3">
          <mxGeometry x="55" y="751" width="50" height="49" as="geometry" />
        </mxCell>
        <mxCell id="sp9IfoOxn37nYkFX-SEC-163" value="&lt;font color=&quot;#000000&quot; style=&quot;font-size: 8px;&quot;&gt;Yes&lt;/font&gt;" style="text;html=1;strokeColor=none;fillColor=none;align=center;verticalAlign=middle;whiteSpace=wrap;rounded=0;fontFamily=Montserrat;fontSource=https%3A%2F%2Ffonts.googleapis.com%2Fcss%3Ffamily%3DMontserrat;fontColor=#FFFFFF;fontSize=8;" vertex="1" parent="77e6c97f196da883-3">
          <mxGeometry x="79" y="716" width="60" height="30" as="geometry" />
        </mxCell>
        <mxCell id="sp9IfoOxn37nYkFX-SEC-169" value="&lt;font color=&quot;#000000&quot; style=&quot;font-size: 8px;&quot;&gt;No&lt;/font&gt;" style="text;html=1;strokeColor=none;fillColor=none;align=center;verticalAlign=middle;whiteSpace=wrap;rounded=0;fontFamily=Montserrat;fontSource=https%3A%2F%2Ffonts.googleapis.com%2Fcss%3Ffamily%3DMontserrat;fontColor=#FFFFFF;fontSize=8;" vertex="1" parent="77e6c97f196da883-3">
          <mxGeometry y="746" width="60" height="30" as="geometry" />
        </mxCell>
        <mxCell id="sp9IfoOxn37nYkFX-SEC-178" style="edgeStyle=orthogonalEdgeStyle;rounded=0;orthogonalLoop=1;jettySize=auto;html=1;exitX=0.5;exitY=1;exitDx=0;exitDy=0;entryX=0.43;entryY=-0.05;entryDx=0;entryDy=0;entryPerimeter=0;fontFamily=Montserrat;fontSource=https%3A%2F%2Ffonts.googleapis.com%2Fcss%3Ffamily%3DMontserrat;fontSize=8;fontColor=#000000;strokeColor=#6666FF;" edge="1" parent="77e6c97f196da883-3" source="sp9IfoOxn37nYkFX-SEC-173" target="sp9IfoOxn37nYkFX-SEC-177">
          <mxGeometry relative="1" as="geometry" />
        </mxCell>
        <mxCell id="sp9IfoOxn37nYkFX-SEC-173" value="Create API configuration Yaml" style="rounded=1;whiteSpace=wrap;html=1;shadow=0;labelBackgroundColor=none;strokeWidth=1;fontFamily=Montserrat;fontSize=8;align=center;fontSource=https%3A%2F%2Ffonts.googleapis.com%2Fcss%3Ffamily%3DMontserrat;strokeColor=#4FAEEA;" vertex="1" parent="77e6c97f196da883-3">
          <mxGeometry x="32" y="831" width="100" height="20" as="geometry" />
        </mxCell>
        <mxCell id="sp9IfoOxn37nYkFX-SEC-177" value="Invoke Backstage to Catalog API" style="rounded=1;whiteSpace=wrap;html=1;shadow=0;labelBackgroundColor=none;strokeWidth=1;fontFamily=Montserrat;fontSize=8;align=center;fontSource=https%3A%2F%2Ffonts.googleapis.com%2Fcss%3Ffamily%3DMontserrat;strokeColor=#4FAEEA;" vertex="1" parent="77e6c97f196da883-3">
          <mxGeometry x="37" y="881" width="100" height="20" as="geometry" />
        </mxCell>
        <mxCell id="sp9IfoOxn37nYkFX-SEC-181" value="Notify API Owner" style="rounded=1;whiteSpace=wrap;html=1;shadow=0;labelBackgroundColor=none;strokeWidth=1;fontFamily=Montserrat;fontSize=8;align=center;fontSource=https%3A%2F%2Ffonts.googleapis.com%2Fcss%3Ffamily%3DMontserrat;strokeColor=#4FAEEA;" vertex="1" parent="77e6c97f196da883-3">
          <mxGeometry x="39" y="921" width="100" height="20" as="geometry" />
        </mxCell>
        <mxCell id="77e6c97f196da883-4" value="EA" style="swimlane;html=1;startSize=20;fontFamily=Montserrat;fontSource=https%3A%2F%2Ffonts.googleapis.com%2Fcss%3Ffamily%3DMontserrat;fillColor=#083488;fontColor=#FFFFFF;strokeColor=#B3B3B3;" parent="77e6c97f196da883-1" vertex="1">
          <mxGeometry x="360" y="20" width="160" height="971" as="geometry" />
        </mxCell>
        <mxCell id="sp9IfoOxn37nYkFX-SEC-151" value="Intimation on API&amp;nbsp; published for Discovery" style="rounded=1;whiteSpace=wrap;html=1;shadow=0;labelBackgroundColor=none;strokeWidth=1;fontFamily=Montserrat;fontSize=8;align=center;fontSource=https%3A%2F%2Ffonts.googleapis.com%2Fcss%3Ffamily%3DMontserrat;strokeColor=#4FAEEA;" vertex="1" parent="77e6c97f196da883-4">
          <mxGeometry x="42" y="630" width="100" height="20" as="geometry" />
        </mxCell>
        <mxCell id="sp9IfoOxn37nYkFX-SEC-154" value="Update the API status" style="rounded=1;whiteSpace=wrap;html=1;shadow=0;labelBackgroundColor=none;strokeWidth=1;fontFamily=Montserrat;fontSize=8;align=center;fontSource=https%3A%2F%2Ffonts.googleapis.com%2Fcss%3Ffamily%3DMontserrat;strokeColor=#4FAEEA;" vertex="1" parent="77e6c97f196da883-4">
          <mxGeometry x="42" y="681" width="100" height="20" as="geometry" />
        </mxCell>
        <mxCell id="sp9IfoOxn37nYkFX-SEC-40" value="Blob Storage" style="swimlane;html=1;startSize=20;fontFamily=Montserrat;fontSource=https%3A%2F%2Ffonts.googleapis.com%2Fcss%3Ffamily%3DMontserrat;fillColor=#083488;fontColor=#FFFFFF;strokeColor=#B3B3B3;" vertex="1" parent="77e6c97f196da883-1">
          <mxGeometry x="520" y="20" width="160" height="971" as="geometry" />
        </mxCell>
        <mxCell id="sp9IfoOxn37nYkFX-SEC-77" value="Save definition file" style="rounded=1;whiteSpace=wrap;html=1;shadow=0;labelBackgroundColor=none;strokeWidth=1;fontFamily=Montserrat;fontSize=8;align=center;fontSource=https%3A%2F%2Ffonts.googleapis.com%2Fcss%3Ffamily%3DMontserrat;strokeColor=#4FAEEA;" vertex="1" parent="sp9IfoOxn37nYkFX-SEC-40">
          <mxGeometry x="38" y="255" width="100" height="20" as="geometry" />
        </mxCell>
        <mxCell id="sp9IfoOxn37nYkFX-SEC-136" value="Save Documentation" style="rounded=1;whiteSpace=wrap;html=1;shadow=0;labelBackgroundColor=none;strokeWidth=1;fontFamily=Montserrat;fontSize=8;align=center;fontSource=https%3A%2F%2Ffonts.googleapis.com%2Fcss%3Ffamily%3DMontserrat;strokeColor=#4FAEEA;" vertex="1" parent="sp9IfoOxn37nYkFX-SEC-40">
          <mxGeometry x="30" y="537" width="100" height="20" as="geometry" />
        </mxCell>
        <mxCell id="sp9IfoOxn37nYkFX-SEC-84" value="Backstage" style="swimlane;html=1;startSize=20;fontFamily=Montserrat;fontSource=https%3A%2F%2Ffonts.googleapis.com%2Fcss%3Ffamily%3DMontserrat;fillColor=#083488;fontColor=#FFFFFF;strokeColor=#B3B3B3;" vertex="1" parent="77e6c97f196da883-1">
          <mxGeometry x="680" y="20" width="160" height="971" as="geometry" />
        </mxCell>
        <mxCell id="sp9IfoOxn37nYkFX-SEC-101" value="Get definition file" style="rounded=1;whiteSpace=wrap;html=1;shadow=0;labelBackgroundColor=none;strokeWidth=1;fontFamily=Montserrat;fontSize=8;align=center;fontSource=https%3A%2F%2Ffonts.googleapis.com%2Fcss%3Ffamily%3DMontserrat;strokeColor=#4FAEEA;" vertex="1" parent="sp9IfoOxn37nYkFX-SEC-84">
          <mxGeometry x="30" y="356" width="100" height="20" as="geometry" />
        </mxCell>
        <mxCell id="sp9IfoOxn37nYkFX-SEC-179" value="Catalog API" style="rounded=1;whiteSpace=wrap;html=1;shadow=0;labelBackgroundColor=none;strokeWidth=1;fontFamily=Montserrat;fontSize=8;align=center;fontSource=https%3A%2F%2Ffonts.googleapis.com%2Fcss%3Ffamily%3DMontserrat;strokeColor=#4FAEEA;" vertex="1" parent="sp9IfoOxn37nYkFX-SEC-84">
          <mxGeometry x="30" y="881" width="100" height="20" as="geometry" />
        </mxCell>
        <mxCell id="sp9IfoOxn37nYkFX-SEC-83" value="SAAS" style="swimlane;html=1;startSize=20;fontFamily=Montserrat;fontSource=https%3A%2F%2Ffonts.googleapis.com%2Fcss%3Ffamily%3DMontserrat;fillColor=#083488;fontColor=#FFFFFF;strokeColor=#B3B3B3;" vertex="1" parent="77e6c97f196da883-1">
          <mxGeometry x="840" y="20" width="160" height="971" as="geometry" />
        </mxCell>
        <mxCell id="sp9IfoOxn37nYkFX-SEC-116" value="Get definition file" style="rounded=1;whiteSpace=wrap;html=1;shadow=0;labelBackgroundColor=none;strokeWidth=1;fontFamily=Montserrat;fontSize=8;align=center;fontSource=https%3A%2F%2Ffonts.googleapis.com%2Fcss%3Ffamily%3DMontserrat;strokeColor=#4FAEEA;" vertex="1" parent="sp9IfoOxn37nYkFX-SEC-83">
          <mxGeometry x="22" y="426" width="100" height="20" as="geometry" />
        </mxCell>
        <mxCell id="sp9IfoOxn37nYkFX-SEC-82" value="Packaged APP" style="swimlane;html=1;startSize=20;fontFamily=Montserrat;fontSource=https%3A%2F%2Ffonts.googleapis.com%2Fcss%3Ffamily%3DMontserrat;fillColor=#083488;fontColor=#FFFFFF;strokeColor=#B3B3B3;" vertex="1" parent="77e6c97f196da883-1">
          <mxGeometry x="1000" y="20" width="160" height="971" as="geometry" />
        </mxCell>
        <mxCell id="sp9IfoOxn37nYkFX-SEC-125" value="Get definition file" style="rounded=1;whiteSpace=wrap;html=1;shadow=0;labelBackgroundColor=none;strokeWidth=1;fontFamily=Montserrat;fontSize=8;align=center;fontSource=https%3A%2F%2Ffonts.googleapis.com%2Fcss%3Ffamily%3DMontserrat;strokeColor=#4FAEEA;" vertex="1" parent="sp9IfoOxn37nYkFX-SEC-82">
          <mxGeometry x="30" y="496" width="100" height="20" as="geometry" />
        </mxCell>
        <mxCell id="sp9IfoOxn37nYkFX-SEC-153" value="Github" style="swimlane;html=1;startSize=20;fontFamily=Montserrat;fontSource=https%3A%2F%2Ffonts.googleapis.com%2Fcss%3Ffamily%3DMontserrat;fillColor=#083488;fontColor=#FFFFFF;strokeColor=#B3B3B3;" vertex="1" parent="77e6c97f196da883-1">
          <mxGeometry x="1160" y="20" width="160" height="971" as="geometry" />
        </mxCell>
        <mxCell id="sp9IfoOxn37nYkFX-SEC-175" value="Push to Repository" style="rounded=1;whiteSpace=wrap;html=1;shadow=0;labelBackgroundColor=none;strokeWidth=1;fontFamily=Montserrat;fontSize=8;align=center;fontSource=https%3A%2F%2Ffonts.googleapis.com%2Fcss%3Ffamily%3DMontserrat;strokeColor=#4FAEEA;" vertex="1" parent="sp9IfoOxn37nYkFX-SEC-153">
          <mxGeometry x="30" y="831" width="100" height="20" as="geometry" />
        </mxCell>
        <mxCell id="sp9IfoOxn37nYkFX-SEC-49" style="edgeStyle=orthogonalEdgeStyle;rounded=0;orthogonalLoop=1;jettySize=auto;html=1;entryX=0;entryY=0.5;entryDx=0;entryDy=0;fontFamily=Montserrat;fontSource=https%3A%2F%2Ffonts.googleapis.com%2Fcss%3Ffamily%3DMontserrat;fontSize=8;fontColor=#000000;strokeColor=#6666FF;" edge="1" parent="77e6c97f196da883-1" source="sp9IfoOxn37nYkFX-SEC-47" target="sp9IfoOxn37nYkFX-SEC-48">
          <mxGeometry relative="1" as="geometry" />
        </mxCell>
        <mxCell id="sp9IfoOxn37nYkFX-SEC-51" style="edgeStyle=orthogonalEdgeStyle;rounded=1;html=1;labelBackgroundColor=none;startArrow=none;startFill=0;startSize=5;endArrow=classicThin;endFill=1;endSize=5;jettySize=auto;orthogonalLoop=1;strokeWidth=1;fontFamily=Verdana;fontSize=8;strokeColor=#6666FF;entryX=0.5;entryY=0;entryDx=0;entryDy=0;" edge="1" parent="77e6c97f196da883-1" target="sp9IfoOxn37nYkFX-SEC-50">
          <mxGeometry relative="1" as="geometry">
            <mxPoint x="260" y="80" as="sourcePoint" />
            <mxPoint x="68" y="98" as="targetPoint" />
            <Array as="points">
              <mxPoint x="260" y="98" />
              <mxPoint x="68" y="98" />
            </Array>
          </mxGeometry>
        </mxCell>
        <mxCell id="sp9IfoOxn37nYkFX-SEC-52" value="" style="edgeStyle=orthogonalEdgeStyle;rounded=0;orthogonalLoop=1;jettySize=auto;html=1;fontFamily=Montserrat;fontSource=https%3A%2F%2Ffonts.googleapis.com%2Fcss%3Ffamily%3DMontserrat;fontSize=8;fontColor=#000000;strokeColor=#6666FF;entryX=0.5;entryY=0;entryDx=0;entryDy=0;" edge="1" parent="77e6c97f196da883-1" source="sp9IfoOxn37nYkFX-SEC-50" target="sp9IfoOxn37nYkFX-SEC-45">
          <mxGeometry relative="1" as="geometry">
            <Array as="points">
              <mxPoint x="138" y="128" />
              <mxPoint x="138" y="108" />
              <mxPoint x="260" y="108" />
            </Array>
          </mxGeometry>
        </mxCell>
        <mxCell id="sp9IfoOxn37nYkFX-SEC-54" style="edgeStyle=orthogonalEdgeStyle;rounded=0;orthogonalLoop=1;jettySize=auto;html=1;entryX=1;entryY=0.75;entryDx=0;entryDy=0;fontFamily=Montserrat;fontSource=https%3A%2F%2Ffonts.googleapis.com%2Fcss%3Ffamily%3DMontserrat;fontSize=8;fontColor=#000000;strokeColor=#6666FF;" edge="1" parent="77e6c97f196da883-1" source="sp9IfoOxn37nYkFX-SEC-45" target="sp9IfoOxn37nYkFX-SEC-50">
          <mxGeometry relative="1" as="geometry" />
        </mxCell>
        <mxCell id="sp9IfoOxn37nYkFX-SEC-53" style="edgeStyle=orthogonalEdgeStyle;rounded=1;html=1;labelBackgroundColor=none;startArrow=none;startFill=0;startSize=5;endArrow=classicThin;endFill=1;endSize=5;jettySize=auto;orthogonalLoop=1;strokeWidth=1;fontFamily=Verdana;fontSize=8;exitX=0.5;exitY=1;exitDx=0;exitDy=0;entryX=0.5;entryY=0;entryDx=0;entryDy=0;strokeColor=#6666FF;" edge="1" parent="77e6c97f196da883-1" source="sp9IfoOxn37nYkFX-SEC-45" target="sp9IfoOxn37nYkFX-SEC-56">
          <mxGeometry relative="1" as="geometry">
            <mxPoint x="338" y="208" as="sourcePoint" />
            <mxPoint x="128" y="238" as="targetPoint" />
            <Array as="points">
              <mxPoint x="260" y="180" />
              <mxPoint x="68" y="180" />
            </Array>
          </mxGeometry>
        </mxCell>
        <mxCell id="sp9IfoOxn37nYkFX-SEC-59" style="edgeStyle=orthogonalEdgeStyle;rounded=0;orthogonalLoop=1;jettySize=auto;html=1;exitX=1;exitY=0.5;exitDx=0;exitDy=0;entryX=0.5;entryY=0;entryDx=0;entryDy=0;fontFamily=Montserrat;fontSource=https%3A%2F%2Ffonts.googleapis.com%2Fcss%3Ffamily%3DMontserrat;fontSize=8;fontColor=#000000;strokeColor=#6666FF;" edge="1" parent="77e6c97f196da883-1" source="sp9IfoOxn37nYkFX-SEC-56" target="sp9IfoOxn37nYkFX-SEC-58">
          <mxGeometry relative="1" as="geometry">
            <Array as="points">
              <mxPoint x="118" y="210" />
              <mxPoint x="173" y="210" />
              <mxPoint x="173" y="190" />
              <mxPoint x="258" y="190" />
            </Array>
          </mxGeometry>
        </mxCell>
        <mxCell id="sp9IfoOxn37nYkFX-SEC-60" style="edgeStyle=orthogonalEdgeStyle;rounded=0;orthogonalLoop=1;jettySize=auto;html=1;exitX=0;exitY=0.5;exitDx=0;exitDy=0;entryX=0.5;entryY=1;entryDx=0;entryDy=0;fontFamily=Montserrat;fontSource=https%3A%2F%2Ffonts.googleapis.com%2Fcss%3Ffamily%3DMontserrat;fontSize=8;fontColor=#000000;strokeColor=#6666FF;" edge="1" parent="77e6c97f196da883-1" source="sp9IfoOxn37nYkFX-SEC-58" target="sp9IfoOxn37nYkFX-SEC-56">
          <mxGeometry relative="1" as="geometry">
            <Array as="points">
              <mxPoint x="68" y="230" />
            </Array>
          </mxGeometry>
        </mxCell>
        <mxCell id="sp9IfoOxn37nYkFX-SEC-79" style="edgeStyle=orthogonalEdgeStyle;rounded=0;orthogonalLoop=1;jettySize=auto;html=1;entryX=0;entryY=0.5;entryDx=0;entryDy=0;fontFamily=Montserrat;fontSource=https%3A%2F%2Ffonts.googleapis.com%2Fcss%3Ffamily%3DMontserrat;fontSize=8;fontColor=#000000;strokeColor=#6666FF;" edge="1" parent="77e6c97f196da883-1" source="sp9IfoOxn37nYkFX-SEC-70" target="sp9IfoOxn37nYkFX-SEC-77">
          <mxGeometry relative="1" as="geometry" />
        </mxCell>
        <mxCell id="sp9IfoOxn37nYkFX-SEC-117" style="edgeStyle=orthogonalEdgeStyle;rounded=0;orthogonalLoop=1;jettySize=auto;html=1;entryX=0;entryY=0.5;entryDx=0;entryDy=0;fontFamily=Montserrat;fontSource=https%3A%2F%2Ffonts.googleapis.com%2Fcss%3Ffamily%3DMontserrat;fontSize=8;fontColor=#000000;strokeColor=#6666FF;" edge="1" parent="77e6c97f196da883-1" source="sp9IfoOxn37nYkFX-SEC-103" target="sp9IfoOxn37nYkFX-SEC-116">
          <mxGeometry relative="1" as="geometry" />
        </mxCell>
        <mxCell id="sp9IfoOxn37nYkFX-SEC-123" style="edgeStyle=orthogonalEdgeStyle;rounded=0;orthogonalLoop=1;jettySize=auto;html=1;exitX=0.5;exitY=0;exitDx=0;exitDy=0;entryX=0.5;entryY=0;entryDx=0;entryDy=0;fontFamily=Montserrat;fontSource=https%3A%2F%2Ffonts.googleapis.com%2Fcss%3Ffamily%3DMontserrat;fontSize=8;fontColor=#000000;strokeColor=#6666FF;" edge="1" parent="77e6c97f196da883-1" source="sp9IfoOxn37nYkFX-SEC-101" target="sp9IfoOxn37nYkFX-SEC-70">
          <mxGeometry relative="1" as="geometry">
            <Array as="points">
              <mxPoint x="760" y="250" />
              <mxPoint x="304" y="250" />
            </Array>
          </mxGeometry>
        </mxCell>
        <mxCell id="sp9IfoOxn37nYkFX-SEC-124" style="edgeStyle=orthogonalEdgeStyle;rounded=0;orthogonalLoop=1;jettySize=auto;html=1;entryX=0.5;entryY=0;entryDx=0;entryDy=0;fontFamily=Montserrat;fontSource=https%3A%2F%2Ffonts.googleapis.com%2Fcss%3Ffamily%3DMontserrat;fontSize=8;fontColor=#000000;strokeColor=#6666FF;" edge="1" parent="77e6c97f196da883-1" source="sp9IfoOxn37nYkFX-SEC-116" target="sp9IfoOxn37nYkFX-SEC-70">
          <mxGeometry relative="1" as="geometry">
            <Array as="points">
              <mxPoint x="922" y="250" />
              <mxPoint x="304" y="250" />
            </Array>
          </mxGeometry>
        </mxCell>
        <mxCell id="sp9IfoOxn37nYkFX-SEC-126" style="edgeStyle=orthogonalEdgeStyle;rounded=0;orthogonalLoop=1;jettySize=auto;html=1;exitX=1;exitY=0.5;exitDx=0;exitDy=0;entryX=0;entryY=0.5;entryDx=0;entryDy=0;fontFamily=Montserrat;fontSource=https%3A%2F%2Ffonts.googleapis.com%2Fcss%3Ffamily%3DMontserrat;fontSize=8;fontColor=#000000;strokeColor=#6666FF;" edge="1" parent="77e6c97f196da883-1" source="sp9IfoOxn37nYkFX-SEC-104" target="sp9IfoOxn37nYkFX-SEC-125">
          <mxGeometry relative="1" as="geometry" />
        </mxCell>
        <mxCell id="sp9IfoOxn37nYkFX-SEC-127" style="edgeStyle=orthogonalEdgeStyle;rounded=0;orthogonalLoop=1;jettySize=auto;html=1;entryX=0.5;entryY=0;entryDx=0;entryDy=0;fontFamily=Montserrat;fontSource=https%3A%2F%2Ffonts.googleapis.com%2Fcss%3Ffamily%3DMontserrat;fontSize=8;fontColor=#000000;strokeColor=#6666FF;" edge="1" parent="77e6c97f196da883-1" source="sp9IfoOxn37nYkFX-SEC-125" target="sp9IfoOxn37nYkFX-SEC-70">
          <mxGeometry relative="1" as="geometry">
            <Array as="points">
              <mxPoint x="1080" y="250" />
              <mxPoint x="304" y="250" />
            </Array>
          </mxGeometry>
        </mxCell>
        <mxCell id="sp9IfoOxn37nYkFX-SEC-128" style="edgeStyle=orthogonalEdgeStyle;rounded=0;orthogonalLoop=1;jettySize=auto;html=1;entryX=0.5;entryY=1;entryDx=0;entryDy=0;fontFamily=Montserrat;fontSource=https%3A%2F%2Ffonts.googleapis.com%2Fcss%3Ffamily%3DMontserrat;fontSize=8;fontColor=#000000;strokeColor=#6666FF;" edge="1" parent="77e6c97f196da883-1" source="sp9IfoOxn37nYkFX-SEC-104" target="sp9IfoOxn37nYkFX-SEC-56">
          <mxGeometry relative="1" as="geometry">
            <Array as="points">
              <mxPoint x="198" y="530" />
              <mxPoint x="132" y="530" />
              <mxPoint x="132" y="240" />
              <mxPoint x="68" y="240" />
            </Array>
          </mxGeometry>
        </mxCell>
        <mxCell id="sp9IfoOxn37nYkFX-SEC-137" style="edgeStyle=orthogonalEdgeStyle;rounded=0;orthogonalLoop=1;jettySize=auto;html=1;entryX=0;entryY=0.5;entryDx=0;entryDy=0;fontFamily=Montserrat;fontSource=https%3A%2F%2Ffonts.googleapis.com%2Fcss%3Ffamily%3DMontserrat;fontSize=8;fontColor=#000000;strokeColor=#6666FF;" edge="1" parent="77e6c97f196da883-1" source="sp9IfoOxn37nYkFX-SEC-134" target="sp9IfoOxn37nYkFX-SEC-136">
          <mxGeometry relative="1" as="geometry" />
        </mxCell>
        <mxCell id="sp9IfoOxn37nYkFX-SEC-138" style="edgeStyle=orthogonalEdgeStyle;rounded=0;orthogonalLoop=1;jettySize=auto;html=1;entryX=0.25;entryY=1;entryDx=0;entryDy=0;fontFamily=Montserrat;fontSource=https%3A%2F%2Ffonts.googleapis.com%2Fcss%3Ffamily%3DMontserrat;fontSize=8;fontColor=#000000;strokeColor=#6666FF;" edge="1" parent="77e6c97f196da883-1" source="sp9IfoOxn37nYkFX-SEC-134" target="sp9IfoOxn37nYkFX-SEC-81">
          <mxGeometry relative="1" as="geometry" />
        </mxCell>
        <mxCell id="sp9IfoOxn37nYkFX-SEC-140" style="edgeStyle=orthogonalEdgeStyle;rounded=0;orthogonalLoop=1;jettySize=auto;html=1;entryX=0.5;entryY=0;entryDx=0;entryDy=0;fontFamily=Montserrat;fontSource=https%3A%2F%2Ffonts.googleapis.com%2Fcss%3Ffamily%3DMontserrat;fontSize=8;fontColor=#000000;strokeColor=#6666FF;" edge="1" parent="77e6c97f196da883-1" source="sp9IfoOxn37nYkFX-SEC-81" target="sp9IfoOxn37nYkFX-SEC-134">
          <mxGeometry relative="1" as="geometry">
            <Array as="points">
              <mxPoint x="68" y="543" />
            </Array>
          </mxGeometry>
        </mxCell>
        <mxCell id="sp9IfoOxn37nYkFX-SEC-146" style="edgeStyle=orthogonalEdgeStyle;rounded=0;orthogonalLoop=1;jettySize=auto;html=1;fontFamily=Montserrat;fontSource=https%3A%2F%2Ffonts.googleapis.com%2Fcss%3Ffamily%3DMontserrat;fontSize=8;fontColor=#000000;strokeColor=#6666FF;" edge="1" parent="77e6c97f196da883-1" source="sp9IfoOxn37nYkFX-SEC-136" target="sp9IfoOxn37nYkFX-SEC-144">
          <mxGeometry relative="1" as="geometry">
            <Array as="points">
              <mxPoint x="600" y="590" />
              <mxPoint x="80" y="590" />
            </Array>
          </mxGeometry>
        </mxCell>
        <mxCell id="sp9IfoOxn37nYkFX-SEC-148" style="edgeStyle=orthogonalEdgeStyle;rounded=0;orthogonalLoop=1;jettySize=auto;html=1;entryX=0;entryY=0.5;entryDx=0;entryDy=0;fontFamily=Montserrat;fontSource=https%3A%2F%2Ffonts.googleapis.com%2Fcss%3Ffamily%3DMontserrat;fontSize=8;fontColor=#000000;strokeColor=#6666FF;" edge="1" parent="77e6c97f196da883-1" source="sp9IfoOxn37nYkFX-SEC-144" target="sp9IfoOxn37nYkFX-SEC-147">
          <mxGeometry relative="1" as="geometry" />
        </mxCell>
        <mxCell id="sp9IfoOxn37nYkFX-SEC-152" style="edgeStyle=orthogonalEdgeStyle;rounded=0;orthogonalLoop=1;jettySize=auto;html=1;exitX=1;exitY=0.5;exitDx=0;exitDy=0;fontFamily=Montserrat;fontSource=https%3A%2F%2Ffonts.googleapis.com%2Fcss%3Ffamily%3DMontserrat;fontSize=8;fontColor=#000000;strokeColor=#6666FF;entryX=0;entryY=0.5;entryDx=0;entryDy=0;" edge="1" parent="77e6c97f196da883-1" source="sp9IfoOxn37nYkFX-SEC-149" target="sp9IfoOxn37nYkFX-SEC-151">
          <mxGeometry relative="1" as="geometry">
            <mxPoint x="322" y="660" as="targetPoint" />
          </mxGeometry>
        </mxCell>
        <mxCell id="sp9IfoOxn37nYkFX-SEC-156" style="edgeStyle=orthogonalEdgeStyle;rounded=0;orthogonalLoop=1;jettySize=auto;html=1;entryX=1;entryY=0.5;entryDx=0;entryDy=0;fontFamily=Montserrat;fontSource=https%3A%2F%2Ffonts.googleapis.com%2Fcss%3Ffamily%3DMontserrat;fontSize=8;fontColor=#000000;strokeColor=#6666FF;" edge="1" parent="77e6c97f196da883-1" source="sp9IfoOxn37nYkFX-SEC-154" target="sp9IfoOxn37nYkFX-SEC-155">
          <mxGeometry relative="1" as="geometry" />
        </mxCell>
        <mxCell id="sp9IfoOxn37nYkFX-SEC-160" style="edgeStyle=orthogonalEdgeStyle;rounded=0;orthogonalLoop=1;jettySize=auto;html=1;fontFamily=Montserrat;fontSource=https%3A%2F%2Ffonts.googleapis.com%2Fcss%3Ffamily%3DMontserrat;fontSize=8;fontColor=#000000;strokeColor=#6666FF;" edge="1" parent="77e6c97f196da883-1" source="sp9IfoOxn37nYkFX-SEC-155" target="sp9IfoOxn37nYkFX-SEC-159">
          <mxGeometry relative="1" as="geometry" />
        </mxCell>
        <mxCell id="sp9IfoOxn37nYkFX-SEC-167" style="edgeStyle=orthogonalEdgeStyle;rounded=0;orthogonalLoop=1;jettySize=auto;html=1;exitX=0;exitY=0.5;exitDx=0;exitDy=0;fontFamily=Montserrat;fontSource=https%3A%2F%2Ffonts.googleapis.com%2Fcss%3Ffamily%3DMontserrat;fontSize=8;fontColor=#000000;strokeColor=#6666FF;" edge="1" parent="77e6c97f196da883-1" source="sp9IfoOxn37nYkFX-SEC-161" target="sp9IfoOxn37nYkFX-SEC-165">
          <mxGeometry relative="1" as="geometry" />
        </mxCell>
        <mxCell id="sp9IfoOxn37nYkFX-SEC-176" style="edgeStyle=orthogonalEdgeStyle;rounded=0;orthogonalLoop=1;jettySize=auto;html=1;entryX=0;entryY=0.5;entryDx=0;entryDy=0;fontFamily=Montserrat;fontSource=https%3A%2F%2Ffonts.googleapis.com%2Fcss%3Ffamily%3DMontserrat;fontSize=8;fontColor=#000000;strokeColor=#6666FF;" edge="1" parent="77e6c97f196da883-1" source="sp9IfoOxn37nYkFX-SEC-173" target="sp9IfoOxn37nYkFX-SEC-175">
          <mxGeometry relative="1" as="geometry" />
        </mxCell>
        <mxCell id="sp9IfoOxn37nYkFX-SEC-180" style="edgeStyle=orthogonalEdgeStyle;rounded=0;orthogonalLoop=1;jettySize=auto;html=1;exitX=1;exitY=0.5;exitDx=0;exitDy=0;entryX=0;entryY=0.5;entryDx=0;entryDy=0;fontFamily=Montserrat;fontSource=https%3A%2F%2Ffonts.googleapis.com%2Fcss%3Ffamily%3DMontserrat;fontSize=8;fontColor=#000000;strokeColor=#6666FF;" edge="1" parent="77e6c97f196da883-1" source="sp9IfoOxn37nYkFX-SEC-177" target="sp9IfoOxn37nYkFX-SEC-179">
          <mxGeometry relative="1" as="geometry" />
        </mxCell>
        <mxCell id="sp9IfoOxn37nYkFX-SEC-182" style="edgeStyle=orthogonalEdgeStyle;rounded=0;orthogonalLoop=1;jettySize=auto;html=1;entryX=1;entryY=0.5;entryDx=0;entryDy=0;fontFamily=Montserrat;fontSource=https%3A%2F%2Ffonts.googleapis.com%2Fcss%3Ffamily%3DMontserrat;fontSize=8;fontColor=#000000;strokeColor=#6666FF;" edge="1" parent="77e6c97f196da883-1" source="sp9IfoOxn37nYkFX-SEC-179" target="sp9IfoOxn37nYkFX-SEC-181">
          <mxGeometry relative="1" as="geometry">
            <Array as="points">
              <mxPoint x="760" y="951" />
            </Array>
          </mxGeometry>
        </mxCell>
        <mxCell id="sp9IfoOxn37nYkFX-SEC-183" style="edgeStyle=orthogonalEdgeStyle;rounded=0;orthogonalLoop=1;jettySize=auto;html=1;entryX=0.5;entryY=1;entryDx=0;entryDy=0;fontFamily=Montserrat;fontSource=https%3A%2F%2Ffonts.googleapis.com%2Fcss%3Ffamily%3DMontserrat;fontSize=8;fontColor=#000000;strokeColor=#6666FF;" edge="1" parent="77e6c97f196da883-1" source="sp9IfoOxn37nYkFX-SEC-181" target="sp9IfoOxn37nYkFX-SEC-165">
          <mxGeometry relative="1" as="geometry" />
        </mxCell>
        <mxCell id="X5WUj9LV7zyZnJoSoSZw-69" value="Text" style="text;html=1;strokeColor=none;fillColor=none;align=center;verticalAlign=middle;whiteSpace=wrap;rounded=0;fontFamily=Montserrat;fontSource=https%3A%2F%2Ffonts.googleapis.com%2Fcss%3Ffamily%3DMontserrat;fontColor=#FFFFFF;" parent="1" vertex="1">
          <mxGeometry x="1060" y="240" width="60" height="30" as="geometry" />
        </mxCell>
        <mxCell id="sp9IfoOxn37nYkFX-SEC-75" value="&lt;font color=&quot;#000000&quot; style=&quot;font-size: 8px;&quot;&gt;Yes&lt;/font&gt;" style="text;html=1;strokeColor=none;fillColor=none;align=center;verticalAlign=middle;whiteSpace=wrap;rounded=0;fontFamily=Montserrat;fontSource=https%3A%2F%2Ffonts.googleapis.com%2Fcss%3Ffamily%3DMontserrat;fontColor=#FFFFFF;fontSize=8;" vertex="1" parent="1">
          <mxGeometry x="200" y="269" width="60" height="30" as="geometry" />
        </mxCell>
        <mxCell id="sp9IfoOxn37nYkFX-SEC-80" style="edgeStyle=orthogonalEdgeStyle;rounded=0;orthogonalLoop=1;jettySize=auto;html=1;exitX=0.5;exitY=1;exitDx=0;exitDy=0;fontFamily=Montserrat;fontSource=https%3A%2F%2Ffonts.googleapis.com%2Fcss%3Ffamily%3DMontserrat;fontSize=8;fontColor=#000000;strokeColor=#6666FF;" edge="1" parent="1" source="sp9IfoOxn37nYkFX-SEC-77">
          <mxGeometry relative="1" as="geometry">
            <mxPoint x="80" y="380" as="targetPoint" />
          </mxGeometry>
        </mxCell>
        <mxCell id="sp9IfoOxn37nYkFX-SEC-106" style="edgeStyle=orthogonalEdgeStyle;rounded=0;orthogonalLoop=1;jettySize=auto;html=1;exitX=0.5;exitY=1;exitDx=0;exitDy=0;entryX=0.5;entryY=0;entryDx=0;entryDy=0;fontFamily=Montserrat;fontSource=https%3A%2F%2Ffonts.googleapis.com%2Fcss%3Ffamily%3DMontserrat;fontSize=8;fontColor=#000000;strokeColor=#6666FF;" edge="1" parent="1">
          <mxGeometry relative="1" as="geometry">
            <mxPoint x="216" y="423" as="sourcePoint" />
            <mxPoint x="216" y="443" as="targetPoint" />
          </mxGeometry>
        </mxCell>
        <mxCell id="sp9IfoOxn37nYkFX-SEC-107" style="edgeStyle=orthogonalEdgeStyle;rounded=0;orthogonalLoop=1;jettySize=auto;html=1;exitX=0.5;exitY=1;exitDx=0;exitDy=0;entryX=0.5;entryY=0;entryDx=0;entryDy=0;fontFamily=Montserrat;fontSource=https%3A%2F%2Ffonts.googleapis.com%2Fcss%3Ffamily%3DMontserrat;fontSize=8;fontColor=#000000;strokeColor=#6666FF;" edge="1" parent="1">
          <mxGeometry relative="1" as="geometry">
            <mxPoint x="216" y="423" as="sourcePoint" />
            <mxPoint x="216" y="443" as="targetPoint" />
          </mxGeometry>
        </mxCell>
        <mxCell id="sp9IfoOxn37nYkFX-SEC-114" style="edgeStyle=orthogonalEdgeStyle;rounded=0;orthogonalLoop=1;jettySize=auto;html=1;exitX=1;exitY=0.5;exitDx=0;exitDy=0;entryX=0;entryY=0.5;entryDx=0;entryDy=0;fontFamily=Montserrat;fontSource=https%3A%2F%2Ffonts.googleapis.com%2Fcss%3Ffamily%3DMontserrat;fontSize=8;fontColor=#000000;strokeColor=#6666FF;" edge="1" parent="1" source="sp9IfoOxn37nYkFX-SEC-98" target="sp9IfoOxn37nYkFX-SEC-101">
          <mxGeometry relative="1" as="geometry" />
        </mxCell>
        <mxCell id="sp9IfoOxn37nYkFX-SEC-98" value="Is Backstage" style="rhombus;whiteSpace=wrap;html=1;fontFamily=Montserrat;fontSource=https%3A%2F%2Ffonts.googleapis.com%2Fcss%3Ffamily%3DMontserrat;fontSize=8;strokeColor=#4FAEEA;" vertex="1" parent="1">
          <mxGeometry x="186" y="374" width="60" height="50" as="geometry" />
        </mxCell>
        <mxCell id="sp9IfoOxn37nYkFX-SEC-111" value="&lt;font color=&quot;#000000&quot; style=&quot;font-size: 8px;&quot;&gt;No&lt;/font&gt;" style="text;html=1;strokeColor=none;fillColor=none;align=center;verticalAlign=middle;whiteSpace=wrap;rounded=0;fontFamily=Montserrat;fontSource=https%3A%2F%2Ffonts.googleapis.com%2Fcss%3Ffamily%3DMontserrat;fontColor=#FFFFFF;fontSize=8;" vertex="1" parent="1">
          <mxGeometry x="205" y="420" width="60" height="30" as="geometry" />
        </mxCell>
        <mxCell id="sp9IfoOxn37nYkFX-SEC-112" value="&lt;font color=&quot;#000000&quot; style=&quot;font-size: 8px;&quot;&gt;No&lt;/font&gt;" style="text;html=1;strokeColor=none;fillColor=none;align=center;verticalAlign=middle;whiteSpace=wrap;rounded=0;fontFamily=Montserrat;fontSource=https%3A%2F%2Ffonts.googleapis.com%2Fcss%3Ffamily%3DMontserrat;fontColor=#FFFFFF;fontSize=8;" vertex="1" parent="1">
          <mxGeometry x="205" y="489" width="60" height="30" as="geometry" />
        </mxCell>
        <mxCell id="sp9IfoOxn37nYkFX-SEC-141" value="&lt;font color=&quot;#000000&quot; style=&quot;font-size: 8px;&quot;&gt;No&lt;/font&gt;" style="text;html=1;strokeColor=none;fillColor=none;align=center;verticalAlign=middle;whiteSpace=wrap;rounded=0;fontFamily=Montserrat;fontSource=https%3A%2F%2Ffonts.googleapis.com%2Fcss%3Ffamily%3DMontserrat;fontColor=#FFFFFF;fontSize=8;" vertex="1" parent="1">
          <mxGeometry x="205" y="585" width="60" height="30" as="geometry" />
        </mxCell>
        <mxCell id="sp9IfoOxn37nYkFX-SEC-143" value="&lt;font color=&quot;#000000&quot; style=&quot;font-size: 8px;&quot;&gt;Yes&lt;/font&gt;" style="text;html=1;strokeColor=none;fillColor=none;align=center;verticalAlign=middle;whiteSpace=wrap;rounded=0;fontFamily=Montserrat;fontSource=https%3A%2F%2Ffonts.googleapis.com%2Fcss%3Ffamily%3DMontserrat;fontColor=#FFFFFF;fontSize=8;" vertex="1" parent="1">
          <mxGeometry x="291" y="584" width="60" height="30" as="geometry" />
        </mxCell>
      </root>
    </mxGraphModel>
  </diagram>
</mxfile>
